Get Smart (2008)

Format                                   : Matroska
Format version                           : Version 2
File size                                : 476 MiB
Duration                                 : 1h 49mn
Overall bit rate mode                    : Variable
Overall bit rate                         : 606 Kbps
Movie name                               : Get Smart DvDrip Eng
Encoded date                             : UTC 2012-03-10 06:30:27
Writing application                      : mkvmerge v5.2.0 ('I can't explain') built on Dec 29 2011 19:29:57
Writing library                          : libebml v1.2.3 + libmatroska v1.3.0

Video

Format                                   : AVC
Format/Info                              : Advanced Video Codec
Format profile                           : High@L4.0
Format settings, CABAC                   : Yes
Format settings, ReFrames                : 3 frames
Codec ID                                 : V_MPEG4/ISO/AVC
Duration                                 : 1h 49mn
Bit rate mode                            : Variable
Bit rate                                 : 498 Kbps
Maximum bit rate                         : 25.0 Mbps
Width                                    : 616 pixels
Height                                   : 336 pixels
Display aspect ratio                     : 16:9
Frame rate                               : 23.976 fps
Color space                              : YUV
Chroma subsampling                       : 4:2:0
Bit depth                                : 8 bits
Scan type                                : Progressive
Bits/(Pixel*Frame)                       : 0.100
Stream size                              : 391 MiB (82%)
Writing library                          : x264 core 120 r2120 0c7dab9


Audio
ID                                       : 2
Format                                   : Vorbis
Format settings, Floor                   : 1
Codec ID                                 : A_VORBIS
Duration                                 : 1h 49mn
Bit rate mode                            : Variable
Bit rate                                 : 96.0 Kbps
Channel(s)                               : 2 channels
Sampling rate                            : 48.0 KHz
Compression mode                         : Lossy
Stream size                              : 75.5 MiB (16%)